<svg width="24" height="20" viewBox="0 0 24 20" fill="none" xmlns="http://www.w3.org/2000/svg">
<path d="M7.87928 7.92092L9.56879 9.63053C9.66704 9.73013 9.72227 9.86504 9.72235 10.0056M9.72235 10.0056C9.7226 10.1462 9.66768 10.2809 9.56965 10.3803L7.88411 12.0859M9.72235 10.0056L8.70477 10.0044L5 10" stroke="black" stroke-linecap="round" stroke-linejoin="round"/>
<path fill-rule="evenodd" clip-rule="evenodd" d="M3.90541 1.11111C3.14015 1.11111 2.40285 1.45981 1.85664 2.08664C1.3099 2.71407 1 3.56878 1 4.4636V15.5364C1 16.4312 1.3099 17.2859 1.85664 17.9134C2.40284 18.5402 3.14015 18.8889 3.90541 18.8889V19.4444V20C2.86432 20 1.86927 19.5252 1.1382 18.6862C0.407666 17.8479 0 16.7145 0 15.5364V4.4636C0 3.28547 0.407666 2.15212 1.1382 1.31376C1.86927 0.474781 2.86432 0 3.90541 0V0.555556V1.11111ZM3.90541 0.555556C3.90541 1.11111 3.9053 1.11111 3.90541 1.11111H18.0946C18.8694 1.11111 19.5226 1.37424 20.1434 2.08664C20.7651 2.80015 21 3.55858 21 4.4636C21 4.77043 21.2239 5.01916 21.5 5.01916C21.7761 5.01916 22 4.77043 22 4.4636C22 3.29567 21.6795 2.25218 20.8618 1.31376C20.0431 0.374221 19.1262 0 18.0946 0H3.90541C3.9053 0 3.90541 0 3.90541 0.555556ZM21.5 14.9808C21.7761 14.9808 22 15.2296 22 15.5364C22 16.1703 21.9245 16.7288 21.7353 17.2532C21.5458 17.778 21.2542 18.2359 20.8618 18.6862C20.0403 19.6289 19.0701 20 18.0946 20H3.90541C3.9053 20 3.90541 20 3.90541 19.4444C3.90541 18.8889 3.9053 18.8889 3.90541 18.8889H18.0946C18.8218 18.8889 19.5253 18.6226 20.1434 17.9134C20.4707 17.5377 20.6778 17.1979 20.8071 16.8396C20.9366 16.4808 21 16.0706 21 15.5364C21 15.2296 21.2239 14.9808 21.5 14.9808Z" fill="black"/>
<path d="M22.3333 6H15.6667C14.7462 6 14 6.71634 14 7.6V12.4C14 13.2837 14.7462 14 15.6667 14H22.3333C23.2538 14 24 13.2837 24 12.4V7.6C24 6.71634 23.2538 6 22.3333 6Z" fill="black"/>
<path d="M19.2959 8.3425L20.6438 9.70642C20.7222 9.78588 20.7663 9.89349 20.7664 10.0056M20.7664 10.0056C20.7666 10.1177 20.7228 10.2252 20.6447 10.3044L19.3007 11.6643M20.7664 10.0056L19.9548 10.0044L17 10" stroke="#666666" stroke-linecap="round" stroke-linejoin="round"/>
</svg>
